# xmcd
#
# Track frame offsets:
#	183
#	12865
#	28673
#	42480
#	59060
#	71180
#	93510
#	118530
#	132810
#	151123
#	167648
#
# Disc length: 2449 seconds
#
# Revision: 0
# Processed by: cddbd v1.5.1PL0 Copyright (c) Steve Scherf et al.
# Submitted via: audiograbber 1.83.01
#
DISCID=92098f0b
DTITLE=Svata Kotas - Pozde v noci
DYEAR=1993
DGENRE=Bluegrass
TTITLE0=Banjo Time
TTITLE1=Pochoutka
TTITLE2=Zpatecni cestou
TTITLE3=Nova akusticka
TTITLE4=Swing pro tebe
TTITLE5=Telegram
TTITLE6=Jen tak
TTITLE7=Cikanska noc
TTITLE8=Pozde v noci
TTITLE9=Kondor v ...
TTITLE10=Na zaver
EXTD=
EXTT0=
EXTT1=
EXTT2=
EXTT3=
EXTT4=
EXTT5=
EXTT6=
EXTT7=
EXTT8=
EXTT9=
EXTT10=
PLAYORDER=
